<?xml version="1.0"?>
<svg xmlns="http://www.w3.org/2000/svg" height="512px" viewBox="0 0 448 448" width="512px"><path d="m240 224h160v176h-160zm0 0" fill="#5f6a75"/><path d="m0 448h448v-384h-448zm192-224h-128v-16h128zm224 192h-192v-208h192zm-384-320h384v80h-384zm0 112h16v16h-16zm0 48h160v16h-160zm0 48h160v16h-160zm0 48h160v16h-160zm0 48h160v16h-160zm0 0" fill="#5f6a75"/><path d="m48 112h352v48h-352zm0 0" fill="#5f6a75"/><path d="m448 0h-448v48h448zm-416 32h-16v-16h16zm32 0h-16v-16h16zm32 0h-16v-16h16zm336 0h-16v-16h16zm0 0" fill="#5f6a75"/></svg>
